<svg width="24" height="24" viewBox="0 0 24 24" fill="none" xmlns="http://www.w3.org/2000/svg">
<path d="M6.98058 4.47995C7.67331 4.47995 8.31275 4.53324 8.89891 4.6931C9.48507 4.79967 9.96465 5.01282 10.3909 5.27925C10.8172 5.54569 11.137 5.9187 11.3501 6.39828C11.5633 6.87786 11.6698 7.46402 11.6698 8.10346C11.6698 8.84947 11.51 9.48892 11.137 9.9685C10.8172 10.4481 10.2844 10.8744 9.64493 11.1941C10.5508 11.4605 11.2435 11.9401 11.6698 12.5796C12.0961 13.219 12.3626 14.0183 12.3626 14.9242C12.3626 15.6702 12.2027 16.3096 11.9363 16.8425C11.6698 17.3754 11.2435 17.855 10.764 18.1747C10.2844 18.4944 9.69821 18.7608 9.05877 18.9207C8.41933 19.0806 7.77988 19.1871 7.14044 19.1871H0V4.47995H6.98058ZM6.55429 10.4481C7.14044 10.4481 7.62002 10.2882 7.99303 10.0218C8.36604 9.75535 8.5259 9.27577 8.5259 8.68961C8.5259 8.36989 8.47261 8.05017 8.36604 7.83702C8.25947 7.62388 8.09961 7.46402 7.88646 7.30415C7.67331 7.19758 7.46016 7.09101 7.19373 7.03772C6.92729 6.98443 6.66086 6.98443 6.34114 6.98443H3.2505V10.4481H6.55429ZM6.71415 16.7359C7.03387 16.7359 7.35359 16.6826 7.62002 16.6294C7.88646 16.5761 8.15289 16.4695 8.36604 16.3096C8.57919 16.1498 8.73905 15.9899 8.89891 15.7235C9.00548 15.457 9.11206 15.1373 9.11206 14.7643C9.11206 14.0183 8.89891 13.4854 8.47261 13.1124C8.04632 12.7927 7.46016 12.6328 6.76743 12.6328H3.2505V16.7359H6.71415ZM16.9985 16.6826C17.4248 17.1089 18.0643 17.3221 18.9168 17.3221C19.503 17.3221 20.0359 17.1622 20.4622 16.8958C20.8885 16.5761 21.1549 16.2563 21.2615 15.9366H23.8725C23.4462 17.2155 22.8068 18.1214 21.9542 18.7075C21.1016 19.2404 20.0892 19.5601 18.8636 19.5601C18.011 19.5601 17.2649 19.4003 16.5722 19.1338C15.8795 18.8674 15.3466 18.4944 14.867 17.9615C14.3875 17.4819 14.0144 16.8958 13.8013 16.2031C13.5349 15.5103 13.4283 14.7643 13.4283 13.9117C13.4283 13.1124 13.5349 12.3664 13.8013 11.6737C14.0677 10.9809 14.4407 10.3948 14.9203 9.86192C15.3999 9.38234 15.9861 8.95605 16.6255 8.68961C17.3182 8.42318 18.011 8.26332 18.8636 8.26332C19.7694 8.26332 20.5687 8.42318 21.2615 8.79619C21.9542 9.1692 22.4871 9.59549 22.9134 10.2349C23.3397 10.8211 23.6594 11.5138 23.8725 12.2598C23.9791 13.0058 24.0324 13.7519 23.9791 14.6045H16.2525C16.2525 15.457 16.5722 16.2563 16.9985 16.6826ZM20.3556 11.0875C19.9826 10.7145 19.3964 10.5014 18.7037 10.5014C18.2241 10.5014 17.8511 10.6079 17.5314 10.7678C17.2117 10.9277 16.9985 11.1408 16.7854 11.354C16.5722 11.5671 16.4656 11.8335 16.4124 12.1C16.3591 12.3664 16.3058 12.5796 16.3058 12.7927H21.1016C20.995 11.9934 20.7286 11.4605 20.3556 11.0875ZM15.6663 5.4924H21.6345V6.93115H15.6663V5.4924Z" fill="white"/>
</svg>
