<svg xmlns="http://www.w3.org/2000/svg" version="1.1" xmlns:xlink="http://www.w3.org/1999/xlink" xmlns:svgjs="http://svgjs.dev/svgjs" viewBox="0 0 800 800"><defs><linearGradient x1="50%" y1="0%" x2="50%" y2="100%" id="ccchaos-grad"><stop stop-color="hsl(206, 75%, 49%)" stop-opacity="1" offset="0%"></stop><stop stop-color="hsl(331, 90%, 56%)" stop-opacity="1" offset="100%"></stop></linearGradient></defs><g stroke-width="1.5" stroke="url(#ccchaos-grad)" fill="none" stroke-linecap="round"><path d="M407.75 -87.57Q428.23 -80.18 448.08 -72.37 466.79 -64.12 483.88 -55.41 498.95 -46.29 511.76 -36.86 522.21 -27.25 530.35 -17.6 536.42 -8.1 540.83 1.06 546.99 17.37 553.83 31.51 559.42 37.22 567.23 42.23 577.76 46.67 591.27 50.75 607.88 54.69 627.45 58.77 649.64 63.25 673.93 68.4 699.59 74.43 725.8 81.51 751.67 89.75 776.29 99.17 798.8 109.69 818.48 121.17 834.77 133.37 847.33 145.98 856.08 158.68 861.19 171.08 835.79 186.81 805.8 202.54 779.18 218.26 762.97 233.99 761.48 249.72 775.1 265.45 800.23 281.17 830.19 296.9 857.05 312.63 873.69 328.36 875.69 344.09 862.53 359.81 837.69 375.54 807.76 391.27 780.68 407 763.61 422.73 761.1 438.45 773.79 454.18 798.34 469.91 828.22 485.64 855.53 501.37 873.01 517.09 876.04 532.82 863.81 548.55 839.56 564.28 809.73 580.01 782.22 595.74 764.32 611.46 760.78 627.19 772.54 642.92 796.48 658.65 826.25 674.38 825.35 663.84 816.58 651.06 806.32 645.74 792.41 642.5 775.02 642.12 754.57 645.2 731.65 652.1 707.03 662.95 681.54 677.58 656.05 695.57 631.4 716.26 608.33 738.8 587.47 762.17 569.26 785.31 553.92 807.14 541.51 826.65 531.84 842.99 524.58 855.48 509.73 861.01 498.5 847.51 491.26 837.64 481.98 828.05 470.51 819.9 456.84 814.32 441.15 812.23 423.73 814.36 413.28 807.04 400.89 804.36 386.63 805.92 370.7 811.05 353.42 818.82 335.18 828.17 316.39 837.91 297.51 846.89 278.95 853.98 261.09 858.23 244.2 858.88 228.48 855.43 214.02 847.67 200.8 835.68 188.73 819.83 177.59 800.75 167.15 779.27 157.13 756.37 147.23 733.11 137.18 710.57 126.75 689.75 115.76 671.51 104.09 656.55 91.73 645.29 78.7 637.94 65.12 634.4 51.13 634.33 36.91 637.18 22.67 642.17 8.58 648.43 -11.78 650.21 -18.26 629.95 -18.2 614.48 -18.22 599.01 -18.31 583.54 -18.45 568.07 -18.6 552.6 -18.72 537.13 -18.79 521.66 -18.77 506.19 -18.68 490.72 -18.54 475.25 -18.39 459.78 -18.27 444.31 -18.2 428.84 -18.22 413.37 -18.3 397.9 -18.44 382.43 -18.59 366.96 -18.72 351.49 -18.78 336.02 -18.77 320.55 -18.69 305.08 -18.55 289.61 -18.4 274.14 -18.28 258.67 -18.21 243.2 -18.21 227.73 -18.3 212.26 -18.43 196.79 -18.58 181.32 -18.71 165.85 -4.87 153 9.15 140.26 23.18 127.99 37.03 116.49 50.53 105.99 63.53 96.63 75.95 88.49 87.76 81.54 99 75.66 109.79 70.68 120.29 66.37 130.72 62.45 141.35 58.64 152.44 54.69 164.22 50.33 176.93 45.37 190.69 39.68 205.57 33.18 221.56 25.84 238.53 17.74 256.25 8.96 274.44 -0.32 292.73 -9.95 310.72 -19.73 328.01 -29.48 344.22 -39.03 359.02 -48.24 372.17 -57.02 383.55 -65.33 393.16 -73.16 404.45 -84.06 407.75 -87.57" stroke-dasharray="2 11" transform="rotate(0, 400, 400)" opacity="0.05"></path><path d="M422.49 -70.87Q439.72 -63.67 455.43 -56.03 469.33 -47.9 481.23 -39.31 491.06 -30.31 498.89 -20.98 504.94 -11.45 509.56 -1.88 513.21 7.55 516.42 16.69 519.8 25.34 523.98 33.38 529.52 40.68 536.98 47.19 546.75 52.9 559.14 57.86 574.25 62.17 592.04 66 612.27 69.56 634.54 73.08 658.31 76.82 682.89 81.05 707.54 85.99 731.47 91.86 753.94 98.79 774.24 106.87 791.8 116.12 806.21 126.45 817.25 137.72 824.9 149.7 829.37 162.12 831.09 174.65 803.68 189.53 776.09 204.41 755.13 219.29 745.95 234.17 750.82 249.05 768.52 263.93 794.72 278.81 822.95 293.7 846.26 308.58 858.92 323.46 857.81 338.34 843.19 353.22 818.68 368.1 790.3 382.98 765.05 397.86 749.13 412.74 746.48 427.62 757.74 442.5 780.14 457.38 808.17 472.26 834.92 487.14 853.8 502.02 860.18 516.9 852.47 531.78 832.57 546.66 805.39 561.54 777.62 576.42 756.09 591.31 746.11 606.19 750.14 621.07 767.17 635.95 793.03 650.83 790.68 632.39 777.84 625.28 765.86 628.13 750.71 634.44 732.63 644.33 712.08 657.7 689.64 674.21 665.99 693.33 641.88 714.35 618.05 736.41 595.18 758.6 573.88 779.95 554.65 799.57 537.82 816.62 523.55 830.45 511.85 840.58 496.16 847.2 485.35 843.04 481.49 835.99 477.62 827.35 473.19 818.11 467.69 809.31 460.75 801.99 452.06 797.1 441.48 795.44 428.98 797.65 414.59 790.53 398.6 787.64 381.34 788.65 363.19 792.98 344.55 799.86 325.86 808.36 307.51 817.46 289.87 826.12 273.21 833.36 257.72 838.27 243.51 840.13 230.59 838.42 218.86 832.84 208.17 823.33 198.29 810.11 188.95 793.61 179.87 774.46 170.78 753.45 161.41 731.47 151.56 709.47 141.08 688.36 129.88 669.01 117.94 652.15 105.32 638.33 92.11 627.91 78.46 621.04 64.54 617.62 50.55 617.36 36.65 619.76 23 624.16 3.11 625.51 -3.72 606.62 -3.78 592.02 -3.64 577.42 -3.35 562.82 -2.96 548.22 -2.59 533.62 -2.31 519.02 -2.21 504.41 -2.29 489.81 -2.55 475.21 -2.92 460.61 -3.31 446.01 -3.62 431.41 -3.78 416.81 -3.74 402.21 -3.52 387.61 -3.17 373 -2.78 358.4 -2.44 343.8 -2.24 329.2 -2.22 314.6 -2.4 300 -2.72 285.4 -3.11 270.8 -3.47 256.2 -3.72 241.6 -3.78 226.99 -3.66 212.39 -3.37 197.79 -2.99 183.19 -2.61 168.59 10.74 156.08 24.35 144.05 38.05 132.8 51.68 122.54 65.06 113.41 78.04 105.47 90.48 98.72 102.31 93.05 113.5 88.3 124.09 84.27 134.16 80.7 143.89 77.32 153.48 73.88 163.16 70.13 173.21 65.85 183.85 60.89 195.34 55.14 207.83 48.55 221.45 41.14 236.23 32.98 252.12 24.18 268.98 14.91 286.57 5.32 304.61 -4.37 322.74 -14.02 340.56 -23.45 357.7 -32.53 373.79 -41.17 388.49 -49.31 401.59 -56.95 417.71 -67.49 422.49 -70.87" stroke-dasharray="9 12" transform="rotate(4.230769230769231, 400, 400)" opacity="0.09"></path><path d="M428.92 -54.16Q441.48 -47.17 452.27 -39.71 461.27 -31.74 468.58 -23.3 474.4 -14.43 479.06 -5.22 482.95 4.19 486.54 13.67 490.34 23.04 494.86 32.13 500.62 40.79 508.04 48.85 517.49 56.22 529.23 62.8 543.36 68.57 559.86 73.56 578.57 77.84 599.17 81.54 621.22 84.83 644.18 87.93 667.43 91.07 690.31 94.5 712.16 98.46 732.34 103.16 750.34 108.8 765.7 115.49 778.16 123.33 787.59 132.3 794.05 142.34 797.79 153.31 799.22 165.01 798.91 177.18 772.12 191.2 748.84 205.22 734.38 219.25 732.02 233.27 742.3 247.29 762.89 261.31 789.09 275.34 814.92 289.36 834.5 303.38 843.35 317.4 839.47 331.42 823.73 345.45 799.73 359.47 772.94 373.49 749.46 387.51 734.65 401.53 731.89 415.56 741.81 429.58 762.14 443.6 788.25 457.62 814.18 471.65 834.03 485.67 843.27 499.69 839.78 513.71 824.37 527.74 800.55 541.76 773.75 555.78 750.09 569.8 734.94 583.83 731.78 597.85 741.32 611.87 761.39 625.89 755.84 614.74 739.56 626.69 726.67 639.11 711.04 654.42 692.97 672.18 672.89 691.8 651.34 712.56 628.91 733.67 606.23 754.29 583.95 773.62 562.62 790.9 542.75 805.49 524.73 816.91 508.84 824.83 495.2 829.16 483.82 830 474.55 827.64 467.13 822.61 461.2 815.56 456.34 807.3 447.7 791.43 437.98 779.92 431.47 778.67 423.54 780.95 406.15 774.02 388.02 770.96 369.55 771.46 351.12 775.05 333.13 781.07 315.89 788.72 299.67 797.14 284.65 805.4 270.92 812.64 258.49 818.03 247.28 820.88 237.15 820.66 227.88 817.03 219.23 809.83 210.92 799.14 202.68 785.22 194.26 768.53 185.42 749.68 175.99 729.38 165.85 708.45 154.95 687.68 143.28 667.9 130.91 649.82 117.95 634.06 104.54 621.09 90.85 611.21 77.07 604.54 63.36 601.01 49.86 600.35 36.7 602.16 17.44 601.48 10.62 583.34 10.73 569.59 11.24 555.84 12.03 542.09 12.92 528.34 13.72 514.59 14.23 500.84 14.35 487.09 14.04 473.34 13.38 459.59 12.51 445.84 11.64 432.09 10.96 418.34 10.63 404.59 10.72 390.84 11.22 377.09 12 363.34 12.89 349.59 13.7 335.84 14.22 322.09 14.35 308.34 14.05 294.59 13.4 280.85 12.54 267.1 11.66 253.35 10.98 239.6 10.63 225.85 10.71 212.1 11.19 198.35 11.97 184.6 12.87 170.85 25.77 159.15 38.97 148.24 52.35 138.32 65.77 129.52 79.07 121.89 92.08 115.42 104.66 110.02 116.68 105.55 128.06 101.81 138.78 98.57 148.84 95.59 158.32 92.61 167.38 89.38 176.18 85.7 184.96 81.4 193.95 76.35 203.4 70.47 213.56 63.76 224.63 56.24 236.77 48.01 250.06 39.19 264.54 29.93 280.13 20.41 296.7 10.8 314.03 1.27 331.83 -8 349.77 -16.92 367.48 -25.38 384.59 -33.33 400.73 -40.76 422.26 -50.92 428.92 -54.16" stroke-dasharray="13 11" transform="rotate(8.461538461538462, 400, 400)" opacity="0.12"></path><path d="M424.69 -37.46Q432.74 -30.68 439.41 -23.41 444.89 -15.63 449.49 -7.35 453.56 1.35 457.5 10.4 461.74 19.68 466.73 29.04 472.86 38.33 480.51 47.38 489.96 56.04 501.41 64.14 514.96 71.59 530.6 78.28 548.17 84.16 567.43 89.25 588.01 93.59 609.47 97.27 631.29 100.43 652.92 103.25 673.79 105.94 693.37 108.73 711.16 111.84 726.77 115.5 739.89 119.91 750.37 125.24 758.17 131.62 763.43 139.1 766.41 147.69 767.52 157.34 767.28 167.92 766.3 179.26 742.45 192.44 724.82 205.62 717.12 218.81 720.97 231.99 735.56 245.18 757.82 258.36 783.05 271.54 805.97 284.73 821.73 297.91 827.02 311.09 820.74 324.28 804.19 337.46 780.87 350.65 755.68 363.83 733.93 377.01 720.18 390.2 717.34 403.38 726 416.56 744.35 429.75 768.51 442.93 793.4 456.11 813.79 469.3 825.38 482.48 825.74 495.66 814.79 508.85 794.83 522.03 770.07 535.21 745.71 548.4 726.88 561.58 717.55 574.76 730.43 593.47 730.42 601.05 726.96 609.94 721.31 621.67 713.23 636.04 702.59 652.66 689.44 671.04 673.94 690.55 656.38 710.53 637.15 730.26 616.72 749.02 595.61 766.15 574.34 781.04 553.45 793.23 533.42 802.37 514.67 808.28 497.53 810.96 482.23 810.58 468.89 807.47 457.53 802.14 448.04 795.2 440.22 787.38 428.74 772.94 419.2 762.8 414.57 761.92 409.41 764.24 391.16 757.53 373.13 754.31 355.67 754.35 339.06 757.24 323.53 762.43 309.23 769.25 296.23 776.95 284.53 784.74 274.05 791.85 264.64 797.54 248.36 800.73 233.19 795.2 225.61 786.88 217.65 775.49 209.13 761.32 199.92 744.8 189.93 726.51 179.14 707.09 167.58 687.23 155.33 667.66 142.5 649.06 129.25 632.05 115.75 617.15 102.15 604.77 88.63 595.18 75.32 588.48 62.34 584.62 49.76 583.4 31.4 579.48 25.07 561.53 25.57 548.58 26.58 535.64 27.89 522.7 29.22 509.76 30.3 496.82 30.89 483.88 30.87 470.93 30.24 457.99 29.15 445.05 27.81 432.11 26.51 419.17 25.52 406.22 25.06 393.28 25.21 380.34 25.95 367.4 27.12 354.45 28.47 341.51 29.73 328.57 30.62 315.63 30.95 302.69 30.67 289.74 29.82 276.8 28.59 263.86 27.23 250.92 26.04 237.97 25.25 225.03 25.04 212.09 25.46 199.15 26.41 186.2 27.69 173.26 40.1 162.8 52.86 153.33 65.88 144.97 79.05 137.75 92.23 131.65 105.27 126.6 118.01 122.46 130.32 119.05 142.06 116.15 153.15 113.54 163.54 110.96 173.24 108.21 182.29 105.05 190.82 101.33 198.97 96.9 206.93 91.68 214.94 85.62 223.23 78.75 232.04 71.11 241.6 62.8 252.09 53.95 263.67 44.73 276.42 35.29 290.36 25.8 305.44 16.43 321.53 7.33 338.43 -1.39 355.89 -9.64 373.59 -17.38 391.19 -24.58 408.34 -31.25 424.69 -37.46 424.69 -37.46 424.69 -37.46" stroke-dasharray="8 14" transform="rotate(12.692307692307693, 400, 400)" opacity="0.16"></path><path d="M411.33 -20.76Q420.86 -6.89 429.57 8.5 434.32 17.02 439.86 25.9 446.52 35.02 454.57 44.24 464.25 53.43 475.7 62.42 488.99 71.06 504.07 79.21 520.83 86.74 539.02 93.57 558.36 99.61 578.46 104.87 598.9 109.34 619.2 113.1 638.9 116.26 657.53 118.95 674.68 121.35 689.98 123.67 703.16 126.11 714.05 128.89 727.74 136.72 735.17 147.18 735.64 162.83 734.87 181.54 715.75 193.93 704.51 206.32 703.34 218.71 712.45 231.1 730.1 243.49 752.85 255.88 776.3 268.27 795.93 280.66 807.92 293.05 809.95 305.44 801.64 317.83 784.59 330.22 762.1 342.61 738.53 355 718.43 367.39 705.7 379.78 702.81 392.17 710.3 404.56 726.74 416.95 748.93 429.34 772.59 441.73 793.14 454.12 806.59 466.51 810.34 478.9 803.68 491.29 787.87 503.67 766 516.06 742.29 528.45 721.32 540.84 707.17 553.23 702.39 573.07 701.15 579.18 701.2 585.3 700.88 594.04 699.68 605.34 697.13 618.99 692.86 634.67 686.58 651.95 678.11 670.31 667.4 689.16 654.51 707.91 639.58 725.92 622.89 742.61 604.76 757.44 585.6 769.97 565.84 779.85 545.93 786.88 526.31 790.97 507.38 792.22 489.51 790.82 472.99 787.14 458.03 781.65 444.75 774.92 433.2 767.59 423.3 760.34 414.94 753.85 402.27 746.98 391.8 747.55 375.12 741.05 359.41 737.71 344.86 737.33 331.57 739.58 319.58 743.99 308.86 749.99 299.31 756.96 290.79 764.21 276.15 776.08 262.53 783.16 255.7 782.7 248.5 779.47 240.75 773.35 232.31 764.36 223.09 752.67 213.04 738.58 202.19 722.51 190.58 704.96 178.33 686.5 165.55 667.73 152.39 649.28 139.03 631.73 125.63 615.61 112.33 601.37 99.26 589.38 86.54 579.86 74.22 572.94 62.35 568.59 45.19 560.69 39.8 542.52 40.86 530.32 42.43 518.12 44.21 505.92 45.85 493.72 47.03 481.52 47.53 469.31 47.25 457.11 46.24 444.91 44.7 432.71 42.93 420.51 41.26 408.31 40.03 396.11 39.47 383.91 39.69 371.71 40.64 359.51 42.15 347.31 43.92 335.11 45.6 322.91 46.88 310.71 47.5 298.51 47.35 286.31 46.45 274.11 44.98 261.91 43.22 249.71 41.52 237.51 40.19 225.31 39.51 213.11 39.6 200.91 40.44 188.7 41.87 176.5 53.72 167.6 65.95 159.78 78.52 153.08 91.33 147.45 104.3 142.83 117.27 139.08 130.12 136.03 142.68 133.49 154.82 131.23 166.42 129.03 177.37 126.68 187.62 123.99 197.14 120.77 205.96 116.89 214.15 112.25 221.83 106.8 229.17 100.53 236.35 93.47 243.6 85.7 251.15 77.32 259.21 68.47 268.02 59.3 277.75 49.96 288.55 40.63 300.52 31.45 313.67 22.55 327.98 14.05 343.36 6.02 359.63 -1.46 376.57 -8.41 393.9 -14.83 411.33 -20.76 411.33 -20.76 411.33 -20.76" stroke-dasharray="7 0" transform="rotate(16.923076923076923, 400, 400)" opacity="0.20"></path><path d="M393.8 -4.07Q398.32 2.24 403.11 9.08 408.46 16.44 414.66 24.3 421.96 32.6 430.57 41.27 440.65 50.2 452.3 59.26 465.53 68.31 480.28 77.22 496.43 85.83 513.77 94.02 532.04 101.64 550.91 108.6 570.01 114.84 588.96 120.3 607.37 124.98 624.84 128.92 641.03 132.18 655.63 134.89 668.4 137.17 679.19 139.2 698.87 147.86 704.72 156.77 704.85 169.2 706.1 184.72 692.84 196.38 688.13 208.04 692.79 219.7 706 231.36 725.42 243.02 747.6 254.68 768.61 266.34 784.72 278.01 793.08 289.67 792.2 301.33 782.24 312.99 764.97 324.65 743.44 336.31 721.48 347.97 702.98 359.63 691.23 371.29 688.29 382.95 694.71 394.61 709.33 406.27 729.57 417.93 751.84 429.59 772.18 441.25 786.99 452.91 793.64 464.57 790.96 476.23 779.42 487.89 761.06 499.55 739.14 511.21 717.56 522.87 700.13 534.53 685.88 552 676.87 559.72 672.3 571.44 670.47 590.1 670 603.22 669.06 618.13 667.22 634.45 664.11 651.74 659.43 669.51 652.96 687.23 644.58 704.37 634.23 720.42 621.98 734.9 607.97 747.42 592.4 757.65 575.55 765.37 557.76 770.48 539.37 772.98 520.77 773 502.32 770.8 484.38 766.71 467.25 761.19 451.19 754.75 436.41 747.94 423.05 741.37 411.16 735.6 392.34 729.84 377.21 730.84 363.96 724.57 351.98 721.14 341.28 720.39 331.78 722.04 323.38 725.7 315.9 730.92 309.14 737.14 302.89 743.81 290.83 755.53 278.2 763.57 271.06 764.34 263.21 762.73 254.58 758.57 245.12 751.81 234.83 742.52 223.75 730.87 211.99 717.14 199.64 701.72 186.86 685.03 173.78 667.58 160.58 649.89 147.4 632.48 134.37 615.85 121.63 600.48 109.25 586.74 97.3 574.96 85.82 565.37 74.79 558.08 64.18 553.11 53.93 550.37 54.04 538.83 55.03 527.29 56.72 515.76 58.82 504.22 60.94 492.69 62.72 481.15 63.84 469.61 64.1 458.08 63.46 446.54 62.02 435 60.05 423.47 57.89 411.93 55.92 400.39 54.5 388.86 53.88 377.32 54.17 365.78 55.31 354.25 57.1 342.71 59.23 331.17 61.32 319.64 63 308.1 63.96 296.56 64.05 285.02 63.24 273.49 61.67 261.95 59.64 250.41 57.48 238.88 55.6 227.34 54.32 215.8 53.87 204.27 54.32 192.73 55.61 181.19 66.79 174.03 78.37 167.94 90.34 162.88 102.65 158.76 115.23 155.46 127.97 152.81 140.75 150.63 153.44 148.72 165.89 146.87 177.96 144.89 189.54 142.59 200.5 139.8 210.77 136.38 220.31 132.25 229.1 127.33 237.19 121.61 244.66 115.1 251.62 107.86 258.23 99.97 264.67 91.54 271.16 82.71 277.91 73.63 285.13 64.44 293.04 55.29 301.82 46.33 311.62 37.67 322.53 29.42 334.63 21.65 347.89 14.42 362.27 7.73 385.72 -1.24 393.8 -4.07" stroke-dasharray="6 1" transform="rotate(21.153846153846153, 400, 400)" opacity="0.23"></path><path d="M378.55 12.63Q384.62 18.71 391.59 25.31 399.64 32.43 408.92 40.04 419.51 48.1 431.46 56.53 444.75 65.23 459.31 74.1 474.98 82.99 491.59 91.79 508.88 100.35 526.58 108.54 544.39 116.24 561.96 123.34 578.99 129.77 595.15 135.47 610.15 140.41 623.76 144.59 635.77 148.08 646.05 150.92 670.01 161.25 674.15 168.02 676.19 177.29 681.11 189.42 674.19 200.43 675.57 211.44 685.03 222.44 701.04 233.45 721 244.46 741.69 255.46 759.76 266.47 772.29 277.48 777.24 288.49 773.82 299.49 762.59 310.5 745.35 321.51 724.89 332.51 704.54 343.52 687.57 354.53 676.75 365.53 673.81 376.54 679.23 387.55 692.14 398.56 710.44 409.56 731.19 420.57 751.01 431.58 766.7 442.58 775.73 453.59 776.62 464.6 769.25 475.6 754.8 486.61 735.6 497.62 714.77 508.62 695.68 519.63 681.41 530.64 674.27 541.64 664.33 544.42 656.45 549.21 650.5 556.09 646.23 565.04 643.37 575.97 641.56 588.71 640.44 602.98 639.62 618.47 638.69 634.78 637.28 651.51 635.05 668.19 631.69 684.38 626.96 699.64 620.68 713.56 612.73 725.79 603.09 736.04 591.78 744.09 578.92 749.83 564.66 753.23 549.23 754.36 532.89 753.38 515.92 750.56 498.64 746.22 481.35 740.78 464.34 734.69 447.9 728.45 432.25 722.54 417.6 717.48 404.09 713.73 391.81 711.7 380.8 711.74 371.03 714.14 354.27 705.81 340.35 704.63 329.27 712.57 318.6 723.58 306.58 734.9 292.74 743.55 284.5 745.29 275.42 745.05 265.52 742.61 254.83 737.88 243.44 730.83 231.45 721.55 218.99 710.2 206.2 697.05 193.24 682.42 180.25 666.68 167.36 650.27 154.71 633.63 142.38 617.19 130.47 601.4 119.02 586.66 108.04 573.3 97.53 561.63 87.45 551.84 77.75 544.08 68.35 538.39 69.2 527.44 70.92 516.48 73.21 505.53 75.71 494.57 78.01 483.62 79.75 472.66 80.63 461.71 80.52 450.75 79.44 439.8 77.56 428.84 75.18 417.89 72.69 406.93 70.49 395.98 68.94 385.02 68.29 374.07 68.64 363.11 69.94 352.16 71.98 341.2 74.42 330.25 76.88 319.29 78.95 308.34 80.3 297.38 80.71 286.43 80.11 275.47 78.61 264.52 76.44 253.56 73.96 242.61 71.56 231.65 69.64 220.7 68.5 209.74 68.34 198.78 69.17 187.83 79.57 182.45 90.37 178.04 101.59 174.49 113.21 171.68 125.19 169.46 137.46 167.66 149.94 166.09 162.5 164.57 175.04 162.91 187.4 160.94 199.47 158.5 211.1 155.48 222.19 151.77 232.64 147.31 242.38 142.07 251.37 136.06 259.61 129.31 267.14 121.9 274.03 113.91 280.4 105.47 286.38 96.69 292.14 87.73 297.88 78.72 303.8 69.8 310.1 61.09 316.99 52.7 324.65 44.73 333.22 37.25 342.85 30.29 353.59 23.88 372.02 15.32 378.55 12.63" stroke-dasharray="10 1" transform="rotate(25.384615384615387, 400, 400)" opacity="0.27"></path><path d="M371.21 29.33Q380.08 35.17 390.07 41.52 401.21 48.38 413.51 55.73 426.89 63.52 441.27 71.68 456.49 80.13 472.38 88.76 488.72 97.46 505.26 106.12 521.74 114.59 537.9 122.76 553.46 130.51 568.18 137.74 581.83 144.36 594.22 150.3 605.21 155.52 614.68 160.02 638.45 172.79 643.48 177.17 650.3 186.15 660.66 196.15 659.89 206.58 666.48 217.01 679.47 227.44 696.94 237.88 716.33 248.31 734.79 258.74 749.61 269.17 758.6 279.61 760.45 290.04 754.89 300.47 742.73 310.9 725.76 321.34 706.48 331.77 687.71 342.2 672.21 352.63 662.27 363.07 659.34 373.5 663.85 383.93 675.15 394.36 691.56 404.8 710.69 415.23 729.71 425.66 745.83 436.09 756.69 446.52 760.69 456.96 757.24 467.39 746.84 477.82 731.03 488.25 712.13 498.69 692.92 509.12 676.21 519.55 664.47 529.98 652.01 535.52 641.4 542.92 632.63 552.13 625.63 563.04 620.23 575.49 616.24 589.22 613.41 603.95 611.44 619.36 610.02 635.07 608.82 650.71 607.53 665.9 605.82 680.26 603.42 693.46 600.07 705.19 595.56 715.19 589.74 723.28 582.51 729.33 573.81 733.29 563.66 735.21 552.14 735.2 539.34 733.43 525.45 730.16 510.65 725.72 495.18 720.46 479.27 714.79 463.18 709.12 447.17 703.88 431.45 699.48 416.27 696.32 401.79 694.75 388.17 695.04 375.54 697.43 357.68 689.42 345.69 693.39 334.27 703.66 320.87 714.58 312.8 719.38 303.91 723.19 294.2 725.66 283.72 726.53 272.56 725.56 260.82 722.61 248.62 717.6 236.09 710.55 223.38 701.54 210.63 690.71 197.96 678.29 185.49 664.56 173.34 649.84 161.58 634.49 150.26 618.87 139.43 603.38 129.09 588.36 119.23 574.18 109.79 561.14 100.74 549.5 91.98 539.46 83.44 531.17 85.13 520.72 87.54 510.27 90.3 499.82 93.02 489.37 95.3 478.92 96.8 468.47 97.29 458.02 96.72 447.56 95.16 437.11 92.83 426.66 90.09 416.21 87.34 405.76 84.98 395.31 83.35 384.86 82.7 374.41 83.12 363.96 84.55 353.51 86.79 343.06 89.49 332.61 92.27 322.16 94.71 311.71 96.46 301.26 97.26 290.81 96.99 280.35 95.7 269.9 93.56 259.45 90.91 249 88.11 238.55 85.6 228.1 83.73 217.65 87.6 200.12 102.32 190.12 112.63 187.84 123.37 186.08 134.53 184.66 146.07 183.42 157.95 182.19 170.08 180.8 182.37 179.1 194.71 176.95 206.97 174.24 219.03 170.87 230.77 166.78 242.05 161.95 252.78 156.37 262.86 150.07 272.24 143.1 280.87 135.55 288.75 127.5 295.91 119.08 302.4 110.4 308.33 101.6 313.81 92.81 319 84.15 324.05 75.73 329.16 67.64 334.53 59.98 340.32 52.81 346.74 46.15 353.94 40.02 366.63 31.88 371.21 29.33" stroke-dasharray="11 13" transform="rotate(29.615384615384613, 400, 400)" opacity="0.31"></path><path d="M374.49 46.04Q386.13 51.62 398.7 57.71 412.1 64.29 426.22 71.35 440.92 78.85 456.02 86.71 471.33 94.88 486.64 103.25 501.73 111.72 516.38 120.19 530.39 128.54 543.56 136.65 555.72 144.42 566.73 151.74 576.5 158.53 584.96 164.71 602.94 180.07 610.43 187.67 619.83 194.68 629.79 199.08 636.6 201.79 645.02 205.22 649.66 215.15 660.24 225.08 675.38 235.01 693.05 244.94 710.92 254.87 726.6 264.8 738.02 274.73 743.66 284.66 742.78 294.6 735.48 304.53 722.74 314.46 706.25 324.39 688.2 334.32 670.99 344.25 656.89 354.18 647.79 364.11 644.89 374.04 648.58 383.97 658.36 393.91 672.94 403.84 690.38 413.77 708.37 423.7 724.52 433.63 736.68 443.56 743.24 453.49 743.32 463.42 736.92 473.36 724.89 483.29 708.83 493.22 690.86 503.15 673.37 513.08 658.69 523.01 644.36 530.96 631.54 540.47 620.3 551.41 610.67 563.61 602.62 576.85 596.07 590.89 590.89 605.42 586.9 620.14 583.9 634.74 581.65 648.88 579.89 662.28 578.36 674.63 576.78 685.68 574.9 695.23 568.85 708.26 560.04 715.85 545.47 714.87 527.19 709.68 515.98 705.26 503.73 700.26 490.59 695.05 476.71 689.96 462.3 685.37 447.53 681.61 432.64 679.01 417.8 677.84 403.22 678.35 389.07 680.73 373.97 672.25 361.22 674.94 354.7 678.99 347.4 683.73 339.28 688.81 330.35 693.87 320.64 698.57 310.21 702.57 299.15 705.57 287.55 707.29 275.54 707.52 263.24 706.1 250.79 702.9 238.3 697.89 225.92 691.07 213.74 682.52 201.87 672.38 190.38 660.83 179.34 648.09 168.78 634.44 158.71 620.16 149.14 605.58 140.04 591 131.35 576.74 123.02 563.1 114.98 550.35 107.15 538.72 99.44 528.42 101.92 518.41 104.88 508.39 107.92 498.38 110.63 488.37 112.67 478.36 113.75 468.35 113.73 458.34 112.62 448.33 110.57 438.32 107.84 428.3 104.8 418.29 101.85 408.28 99.39 398.27 97.74 388.26 97.11 378.25 97.6 368.24 99.14 358.23 101.52 348.22 104.43 338.2 107.48 328.19 110.27 318.18 112.42 308.17 113.65 298.16 113.8 288.15 112.85 278.14 110.92 268.13 108.27 258.12 105.25 248.11 102.26 238.1 99.71 228.08 101.82 211.93 114.63 204.06 123.92 202.75 133.63 201.7 143.77 200.76 154.34 199.78 165.32 198.62 176.68 197.12 188.36 195.19 200.26 192.7 212.31 189.59 224.38 185.8 236.38 181.29 248.17 176.07 259.64 170.15 270.68 163.58 281.18 156.43 291.07 148.77 300.27 140.71 308.74 132.36 316.47 123.83 323.46 115.24 329.77 106.71 335.46 98.35 340.63 90.25 345.39 82.5 354.36 68.58 363.56 56.16 371.61 48.45 374.49 46.04" stroke-dasharray="9 10" transform="rotate(33.84615384615385, 400, 400)" opacity="0.34"></path><path d="M387.18 62.73Q400.41 68.06 414.1 73.87 428.09 80.16 442.24 86.92 456.37 94.09 470.31 101.64 483.88 109.49 496.92 117.56 509.27 125.77 520.79 134.01 531.36 142.19 540.89 150.2 549.32 157.94 556.62 165.31 567.4 178.32 575.22 189.58 590.03 207.7 600.23 211.07 615 213.33 634 216.73 642.88 226.22 656.06 235.71 671.98 245.2 688.74 254.69 704.33 264.18 716.9 273.67 724.95 283.17 727.52 292.66 724.29 302.15 715.66 311.64 702.66 321.13 686.83 330.62 670.07 340.11 654.37 349.6 641.61 359.09 633.31 368.58 630.47 378.07 633.41 387.57 641.79 397.06 654.61 406.55 670.34 416.04 687.1 425.53 702.9 435.02 715.84 444.51 724.39 454 727.52 463.5 724.86 472.99 716.73 482.48 704.09 491.97 688.46 501.46 671.7 510.95 655.81 520.44 640.46 530.23 626.17 541.19 613.08 553.14 601.29 565.9 590.87 579.24 581.84 592.91 574.15 606.64 567.76 620.17 562.54 633.25 558.37 645.61 555.07 657.02 552.46 667.27 545.4 689.66 539.42 697.59 530.9 695.04 519.57 689.17 512.11 684.88 503.59 680.22 494.04 675.49 483.52 671 472.13 667.03 459.98 663.87 447.2 661.78 433.94 660.98 420.36 661.69 406.63 664.03 397.41 656.06 386.33 653.14 371.5 657.2 354.33 664.16 344.46 668.67 333.94 673.31 322.86 677.78 311.34 681.81 299.47 685.12 287.39 687.46 275.22 688.63 263.06 688.46 251.03 686.81 239.24 683.6 227.77 678.79 216.69 672.4 206.06 664.48 195.91 655.16 186.26 644.57 177.1 632.9 168.42 620.36 160.18 607.2 152.33 593.67 144.8 580.02 137.53 566.54 130.43 553.46 123.44 541.02 116.47 529.45 119.57 519.83 122.84 510.21 125.89 500.59 128.36 490.97 129.94 481.36 130.46 471.74 129.85 462.12 128.19 452.5 125.66 442.88 122.58 433.26 119.31 423.64 116.24 414.02 113.73 404.4 112.1 394.78 111.53 385.17 112.08 375.55 113.7 365.93 116.19 356.31 119.25 346.69 122.52 337.07 125.61 327.45 128.15 317.83 129.83 308.21 130.46 298.6 129.96 288.98 128.39 279.36 125.94 269.74 122.9 260.12 119.63 250.5 116.52 240.88 116.9 225.86 127.75 219.57 135.96 218.85 144.53 218.17 153.5 217.39 162.91 216.39 172.76 215.03 183.04 213.23 193.74 210.9 204.79 207.96 216.16 204.37 227.76 200.11 239.51 195.17 251.3 189.57 263.03 183.34 274.59 176.55 285.87 169.26 296.76 161.56 307.17 153.55 317.01 145.32 326.22 136.99 334.73 128.66 342.52 120.44 349.59 112.41 355.95 104.67 361.65 97.28 371.15 84.06 379.49 72.29 385.25 65 387.18 62.73" stroke-dasharray="11 14" transform="rotate(38.07692307692307, 400, 400)" opacity="0.38"></path><path d="M404.6 79.44Q417.63 84.5 430.58 90.03 443.33 96.01 455.72 102.44 467.63 109.28 478.94 116.47 489.53 123.98 499.31 131.72 508.22 139.62 516.2 147.6 523.23 155.56 529.32 163.42 538.4 178.26 545.18 192 551.99 209.78 556.78 219.36 570.63 225.3 585.45 227.7 594 228.23 603.78 228.81 614.8 229.55 626.99 230.56 638.7 239.65 653.04 248.75 668.5 257.84 683.43 266.93 696.23 276.03 705.55 285.12 710.38 294.21 710.22 303.31 705.08 312.4 695.51 321.49 682.53 330.59 667.52 339.68 652.08 348.77 637.86 357.87 626.37 366.96 618.83 376.05 616.06 385.15 618.33 394.24 625.42 403.33 636.57 412.43 650.59 421.52 665.98 430.61 681.1 439.71 694.35 448.8 704.31 457.89 709.93 466.98 710.59 476.08 706.24 485.17 697.34 494.26 684.83 503.36 670.04 512.45 654.56 521.54 639.04 532.45 624.13 544.12 610 556.35 596.79 568.96 584.61 581.74 573.54 594.46 563.63 606.9 554.89 618.86 547.31 630.13 540.85 640.52 531.31 657.39 524.16 670.42 505.38 669.64 493.82 660.33 480.32 652.48 464.17 646.24 454.61 644.62 444.29 644.16 433.3 645.02 421.74 647.33 408.85 639.55 393.69 636.22 384.82 636.9 375.27 638.7 365.1 641.42 354.4 644.85 343.27 648.76 331.79 652.92 320.09 657.07 308.26 660.98 296.43 664.41 284.68 667.16 273.13 669.01 261.85 669.82 250.92 669.44 240.4 667.76 230.33 664.72 220.75 660.29 211.66 654.48 203.06 647.33 194.93 638.92 187.24 629.38 179.94 618.83 172.98 607.46 166.29 595.46 159.81 583.02 153.46 570.36 147.17 557.7 140.88 545.25 134.51 533.21 137.95 523.96 141.24 514.71 144.02 505.46 146.01 496.21 146.97 486.96 146.82 477.71 145.58 468.45 143.36 459.2 140.41 449.95 137.05 440.7 133.62 431.45 130.51 422.2 128.03 412.94 126.45 403.69 125.94 394.44 126.56 385.19 128.24 375.94 130.79 366.69 133.96 357.43 137.39 348.18 140.73 338.93 143.62 329.68 145.75 320.43 146.89 311.18 146.93 301.92 145.85 292.67 143.78 283.42 140.93 274.17 137.61 264.92 134.17 255.66 141.11 238.62 156.58 235.07 172.68 232.63 190.01 228.84 199.44 225.99 209.3 222.53 219.56 218.43 230.2 213.69 241.15 208.33 252.36 202.39 263.73 195.91 275.2 188.95 286.65 181.59 297.99 173.92 309.12 166.02 319.94 157.99 330.36 149.91 340.29 141.89 349.65 134.02 358.39 126.36 366.46 119 373.83 112.01 386.16 99.51 396.57 88.42 402.7 81.57 404.6 79.44" stroke-dasharray="8 5" transform="rotate(42.30769230769231, 400, 400)" opacity="0.42"></path><path d="M420.32 96.14Q431.44 100.94 442.1 106.17 452.21 111.83 461.68 117.92 470.45 124.39 478.47 131.22 485.71 138.35 492.16 145.73 497.81 153.29 502.71 160.95 510.16 176.23 515.94 191.12 520.06 204.58 523.96 216.78 534.39 231.84 545.11 239.67 559.03 242.8 576.03 244.77 586.35 245.27 597.66 245.62 609.91 245.94 623.01 246.32 636.05 255.04 650.22 263.76 664.18 272.47 676.61 281.19 686.33 289.91 692.44 298.63 694.35 307.34 691.87 316.06 685.25 324.78 675.12 333.5 662.42 342.21 648.35 350.93 634.26 359.65 621.46 368.37 611.17 377.08 604.35 385.8 601.66 394.52 603.35 403.24 609.26 411.95 618.82 420.67 631.14 429.39 645.06 438.11 659.25 446.82 672.37 455.54 683.2 464.26 690.7 472.97 694.16 481.69 693.27 490.41 688.09 499.13 679.13 507.84 667.23 516.56 653.51 525.28 638.64 536.55 623.97 548.18 609.67 559.99 595.89 571.82 582.75 583.48 570.38 594.79 558.86 605.6 548.26 615.73 538.64 625.04 530 633.4 516.12 646.29 504.93 655.64 484.13 649.74 476.26 640.65 460.06 630.71 444.96 627.38 428.96 627.11 411.84 622.43 402.39 620.3 392.39 619.41 381.92 619.65 371.06 620.9 359.9 623.01 348.55 625.82 337.09 629.13 325.63 632.76 314.27 636.51 303.08 640.18 292.15 643.59 281.54 646.53 271.32 648.84 261.53 650.36 243.58 649.98 227.08 646.27 219.63 642.35 212.61 637.23 205.96 630.94 199.64 623.53 193.59 615.1 187.74 605.74 182.03 595.59 176.39 584.79 170.77 573.5 165.09 561.9 159.31 550.15 153.37 538.43 156.81 529.55 159.8 520.66 162.05 511.77 163.35 502.88 163.58 494 162.71 485.11 160.82 476.22 158.11 467.33 154.81 458.45 151.25 449.56 147.75 440.67 144.66 431.78 142.26 422.9 140.78 414.01 140.35 405.12 141.03 396.23 142.74 387.35 145.32 378.46 148.54 369.57 152.07 360.68 155.61 351.79 158.79 342.91 161.34 334.02 163 325.13 163.62 316.24 163.14 307.35 161.61 298.47 159.17 289.58 156.05 280.69 152.54 271.8 157.09 255.56 170.19 251.85 183.81 248.51 198.44 243.63 206.44 240.21 214.87 236.19 223.72 231.59 233.01 226.41 242.71 220.69 252.78 214.47 263.2 207.81 273.89 200.77 284.8 193.43 295.85 185.85 306.96 178.14 318.04 170.36 329.01 162.6 339.76 154.93 350.22 147.45 360.3 140.2 369.92 133.26 379.02 126.68 387.53 120.49 395.41 114.73 414.59 100.46 420.32 96.14" stroke-dasharray="14 5" transform="rotate(46.53846153846154, 400, 400)" opacity="0.45"></path><path d="M428.54 112.85Q444.35 122.29 457.62 133.35 468.29 145.89 476.53 159.6 482.77 174.09 487.6 188.84 491.83 203.33 496.31 216.98 501.96 229.29 509.63 239.86 520.02 248.41 533.64 254.82 550.74 259.19 571.26 261.77 594.83 262.99 620.83 263.42 646.65 280.11 667.86 296.79 677.56 313.48 672.59 330.16 654.56 346.85 629.35 363.53 605.17 380.22 589.87 396.9 588.46 413.59 601.38 430.27 624.43 446.96 650.1 463.64 670.05 480.32 677.77 497.01 670.75 513.69 651.28 530.38 624.07 552.2 596.94 573.53 570.91 593.26 546.91 610.38 525.62 624.08 507.48 633.82 492.63 639.41 480.94 640.98 465.89 633.51 454.89 621.19 442.55 612.93 425.28 613.92 404.94 606.08 383.4 602.72 361.33 603.33 339.43 607.08 318.3 612.89 298.47 619.52 280.27 625.71 263.91 630.26 249.37 632.11 236.49 630.47 224.98 624.87 214.42 615.15 204.36 601.52 194.33 584.51 183.91 564.92 172.76 543.75 178.24 526.73 180.21 509.72 178.04 492.71 172.43 475.69 165.22 458.68 158.74 441.67 155.11 424.65 155.51 407.64 159.8 390.63 166.6 373.61 173.69 356.6 178.75 339.59 180.15 322.57 177.43 305.56 171.46 288.54 164.21 271.53 174.83 270.46 185.57 268.01 196.82 263.73 209.01 257.36 222.5 248.81 237.53 238.2 254.22 225.79 272.54 212.02 292.28 197.38 313.08 182.46 334.43 167.81 355.75 153.95 376.39 141.3 395.75 130.16 413.27 120.67 428.54 112.85 428.54 112.85 428.54 112.85" stroke-dasharray="4 15" transform="rotate(50.769230769230774, 400, 400)" opacity="0.49"></path><path d="M426.23 129.55Q436.26 138.41 444.32 148.76 450.71 160.48 455.9 173.35 460.46 187.02 465.05 201.09 470.39 215.09 477.13 228.55 485.89 241.02 497.13 252.09 511.16 261.45 528.07 268.93 547.77 274.46 569.89 278.16 593.91 280.25 619.11 281.11 641.51 297.01 656.92 312.91 660.98 328.8 652.51 344.7 633.94 360.6 610.55 376.5 588.99 392.39 575.4 408.29 573.65 424.19 584.24 440.09 604.15 455.99 627.71 471.88 648.23 487.78 659.86 503.68 659.29 519.58 646.68 535.48 622.88 555.06 598.12 573.28 573.27 589.34 549.14 602.57 526.47 612.52 505.86 618.95 487.73 621.88 472.3 621.61 459.56 618.66 449.32 613.79 435.21 602.47 424.1 594.08 418.68 593.92 412.4 597.22 391.23 589.76 370.21 586.14 349.89 585.98 330.73 588.65 313.06 593.32 297.08 599.06 282.86 604.84 270.31 609.68 259.22 612.67 249.28 613.06 240.11 610.32 231.31 604.14 222.45 594.47 213.18 581.53 203.18 565.75 192.26 547.79 196.2 531.61 196.38 515.42 192.75 499.24 186.33 483.05 178.97 466.87 172.75 450.68 169.44 434.5 169.99 418.31 174.23 402.13 180.97 385.95 188.28 369.76 194.08 353.58 196.73 337.39 195.46 321.21 190.64 305.03 183.65 288.84 193.3 286.76 202.69 283.03 212.17 277.41 222.12 269.8 232.91 260.27 244.86 249.02 258.22 236.36 273.14 222.71 289.66 208.54 307.66 194.33 326.89 180.56 347.01 167.63 367.54 155.9 387.96 145.58 407.7 136.8 426.23 129.55 426.23 129.55 426.23 129.55" stroke-dasharray="5 12" transform="rotate(55, 400, 400)" opacity="0.53"></path><path d="M414.24 146.25Q420.35 154.5 425.55 164.12 430.3 175.01 435.08 186.97 440.43 199.76 446.87 213.04 454.87 226.42 464.8 239.52 476.95 251.94 491.45 263.31 508.28 273.32 527.28 281.74 548.12 288.45 570.34 293.4 593.36 296.7 616.54 298.55 634.11 313.59 643.64 328.64 642.8 343.68 631.79 358.72 613.32 373.76 591.94 388.81 572.91 403.85 560.92 418.89 558.92 433.94 567.4 448.98 584.28 464.03 605.4 479.07 625.55 494.11 639.78 509.16 644.59 524.2 638.78 539.25 619.02 555.75 597.69 570.4 575.39 582.67 552.79 592.21 530.51 598.8 509.17 602.42 489.26 603.25 471.19 601.64 455.23 598.12 441.47 593.34 429.89 588.03 420.32 583.02 406.36 578.16 394.95 580.52 375.79 573.47 357.76 569.67 341.13 568.85 326.08 570.53 312.68 574.12 300.86 578.89 290.46 584.05 281.25 588.83 265.18 593.14 249.64 590.59 241.33 584.46 232.29 575.4 222.33 563.59 211.37 549.37 213.37 534.1 211.72 518.84 206.8 503.57 199.83 488.31 192.54 473.04 186.71 457.78 183.77 442.51 184.46 427.25 188.61 411.98 195.18 396.72 202.57 381.45 208.95 366.19 212.76 350.92 213.05 335.66 209.75 320.39 203.68 305.13 212.75 301.66 221.27 296.48 229.51 289.51 237.77 280.81 246.37 270.51 255.64 258.86 265.89 246.2 277.36 232.9 290.23 219.36 304.59 206 320.44 193.19 337.64 181.25 355.98 170.46 375.13 160.99 394.7 152.92 414.24 146.25 414.24 146.25 414.24 146.25" stroke-dasharray="0 6" transform="rotate(59.230769230769226, 400, 400)" opacity="0.56"></path><path d="M396.99 162.95Q401.81 170.6 406.81 179.46 412.36 189.49 418.85 200.52 426.63 212.35 435.97 224.73 447.08 237.36 460.08 249.92 474.97 262.08 491.66 273.51 509.94 283.93 529.51 293.11 549.97 300.85 570.86 307.06 591.69 311.72 611.93 314.89 623.96 328.99 628.01 343.09 623.21 357.19 610.58 371.29 592.77 385.4 573.54 399.5 556.93 413.6 546.44 427.7 544.27 441.8 550.88 455.9 564.88 470.01 583.33 484.11 602.33 498.21 617.9 512.31 626.75 526.41 627.03 540.51 611.5 553.49 594.15 564.44 575.36 573.1 555.58 579.32 535.28 583.06 514.94 584.45 495.05 583.72 476.03 581.26 458.25 577.51 441.97 573.04 427.39 568.44 414.59 564.33 403.54 561.3 394.13 559.91 386.16 560.62 379.35 563.82 364.3 557.2 350.72 553.3 338.65 551.93 328.02 552.74 318.7 555.3 310.47 559.07 296.37 567.62 283.01 574.49 268.08 573.56 250.93 565.93 240.74 557.9 229.59 547.55 229.48 533.3 226.12 519.06 220.2 504.81 212.97 490.57 205.96 476.32 200.63 462.08 198.12 447.83 198.94 433.58 202.93 419.34 209.25 405.09 216.56 390.85 223.33 376.6 228.14 362.35 229.96 348.11 228.42 333.86 223.85 319.62 232.67 314.61 240.77 308.01 248.32 299.87 255.53 290.31 262.64 279.53 269.93 267.78 277.67 255.38 286.14 242.64 295.58 229.91 306.2 217.51 318.12 205.74 331.43 194.84 346.1 185.03 362.05 176.41 379.1 169.06 396.99 162.95 396.99 162.95 396.99 162.95" stroke-dasharray="4 11" transform="rotate(63.46153846153845, 400, 400)" opacity="0.60"></path><path d="M380.85 179.66Q386.75 186.68 393.53 194.79 401.43 203.93 410.64 213.98 421.27 224.81 433.41 236.22 447.04 247.97 462.1 259.81 478.43 271.49 495.81 282.73 513.98 293.28 532.61 302.93 551.34 311.47 569.78 318.77 587.57 324.74 604.35 329.34 610.82 342.41 610.14 355.47 602.43 368.54 589.05 381.6 572.39 394.67 555.39 407.73 541.06 420.8 531.96 433.86 529.69 446.92 534.66 459.99 545.98 473.05 561.65 486.12 578.89 499.18 594.64 512.25 606.1 525.31 611.26 538.37 599.74 547.75 586.46 555.2 571.62 560.64 555.45 564.06 538.27 565.55 520.4 565.29 502.2 563.54 484.02 560.63 466.22 556.97 449.09 553 432.92 549.16 417.9 545.92 404.19 543.73 391.86 542.98 380.94 544.02 371.37 547.11 361.12 540.95 352.12 537.03 337.61 536.05 325.18 539.68 313.79 547.02 301.6 553.92 286.25 555.98 268.34 553.17 257.82 548.46 246.48 541.74 244.33 528.61 239.55 515.49 232.98 502.36 225.8 489.23 219.27 476.1 214.55 462.97 212.48 449.84 213.42 436.71 217.22 423.59 223.19 410.46 230.27 397.33 237.22 384.2 242.8 371.07 246.01 357.94 246.3 344.81 243.6 331.68 252.43 325.22 260.49 317.42 267.84 308.41 274.61 298.33 280.96 287.4 287.08 275.86 293.18 263.98 299.49 252.02 306.25 240.25 313.69 228.92 322 218.25 331.35 208.43 341.87 199.59 353.63 191.84 373.74 182.43 380.85 179.66" stroke-dasharray="14 8" transform="rotate(67.6923076923077, 400, 400)" opacity="0.63"></path><path d="M371.78 196.36Q380.03 202.76 389.37 210.09 399.86 218.33 411.53 227.4 424.33 237.17 438.21 247.52 453.02 258.28 468.63 269.25 484.81 280.23 501.34 291.02 517.96 301.41 534.4 311.2 550.4 320.22 565.69 328.32 580.03 335.37 593.2 341.3 594.66 353.23 590.28 365.17 580.73 377.11 567.39 389.04 552.23 400.98 537.47 412.92 525.3 424.85 517.48 436.79 515.18 448.73 518.73 460.66 527.6 472.6 540.51 484.54 555.54 496.47 570.49 508.41 583.4 529.33 574.11 542.71 563.15 545.5 550.85 546.75 537.36 546.61 522.88 545.26 507.6 542.96 491.78 539.98 475.67 536.64 459.51 533.27 443.57 530.22 428.06 527.81 413.2 526.37 399.14 526.17 386.03 527.45 373.96 530.41 355.08 520.31 342.92 520.77 331.97 526.65 319.26 532.96 311.62 535.54 303.18 537.31 293.91 538.01 283.86 537.42 273.1 535.37 261.7 531.76 257.81 519.83 252.04 507.91 245.23 495.98 238.39 484.05 232.51 472.13 228.47 460.2 226.85 448.27 227.9 436.34 231.46 424.42 237.01 412.49 243.72 400.56 250.63 388.63 256.7 376.71 261.06 364.78 263.05 352.85 262.39 340.92 271.36 333.3 279.6 324.67 287.11 315.16 293.94 304.96 300.16 294.25 305.89 283.23 311.25 272.12 316.41 261.12 321.55 250.44 326.85 240.27 332.5 230.75 338.68 222.02 345.56 214.17 353.3 207.27 366.89 198.85 371.78 196.36" stroke-dasharray="9 0" transform="rotate(71.92307692307692, 400, 400)" opacity="0.67"></path><path d="M373.11 213.06Q383.59 218.82 394.94 225.38 407.11 232.71 420.01 240.77 433.55 249.46 447.59 258.7 461.98 268.36 476.55 278.32 491.12 288.41 505.51 298.5 519.53 308.42 532.99 318.01 545.74 327.13 557.61 335.64 568.48 343.41 578.25 350.34 575.68 361.08 568.79 371.81 558.4 382.54 545.76 393.27 532.37 404.01 519.83 414.74 509.63 425.47 503.01 436.21 500.73 446.94 503.08 457.67 509.78 468.41 520.02 479.14 532.59 489.88 545.98 500.61 555.36 523.19 540.94 527.79 531.16 526.61 520.36 524.68 508.62 522.23 496.09 519.46 482.89 516.62 469.2 513.93 455.17 511.66 441 510.02 426.85 509.22 412.89 509.47 390.75 509.73 378.38 504.78 362.66 503.04 348.99 506.53 334.08 511.87 317.03 516.75 307.34 518.36 297.06 519.18 286.28 519.05 275.09 517.83 269.96 507.16 263.7 496.5 257.06 485.83 250.82 475.17 245.74 464.5 242.42 453.83 241.25 443.17 242.38 432.5 245.67 421.84 250.73 411.17 256.95 400.51 263.59 389.84 269.86 379.18 275.02 368.51 278.44 357.85 279.72 347.18 288.81 338.85 297.29 329.85 305.12 320.32 312.29 310.4 318.82 300.25 324.75 290.04 330.14 279.93 335.08 270.06 339.66 260.57 344.01 251.61 352.66 236.02 361.88 222.72 370.15 215.27 373.11 213.06" stroke-dasharray="7 8" transform="rotate(76.15384615384615, 400, 400)" opacity="0.71"></path><path d="M384.36 229.76Q395.84 234.89 407.74 240.67 419.99 247.1 432.49 254.13 445.12 261.73 457.75 269.81 470.28 278.31 482.57 287.14 494.5 296.18 505.96 305.34 516.84 314.5 527.04 323.55 536.47 332.37 545.08 340.85 553.55 357.37 546.04 375.33 535.72 384.8 524.29 394.28 512.84 403.75 502.43 413.23 494.07 422.7 488.53 432.18 486.34 441.65 487.71 451.13 492.51 460.6 500.28 470.08 510.3 479.55 521.6 489.03 515.09 503.86 494.55 499.25 484.81 497 474.39 495.03 463.4 493.48 451.93 492.52 440.08 492.27 427.98 492.87 407.83 493.38 396.07 488.78 377.98 485.42 362.07 487.08 354.31 489.01 345.96 491.19 337.08 493.45 327.7 495.63 317.9 497.57 307.74 499.12 297.3 500.14 286.67 500.51 280.92 491.14 274.7 481.77 268.6 472.4 263.2 463.04 259.01 453.67 256.42 444.3 255.68 434.93 256.86 425.57 259.85 416.2 264.36 406.83 269.97 397.47 276.15 388.1 282.31 378.73 287.87 369.37 292.32 360 295.22 350.63 304.28 342.13 312.89 333.27 320.98 324.16 328.55 314.92 335.55 305.67 341.98 296.52 347.86 287.58 353.21 278.95 362.29 263.3 370.28 249.31 380.83 234.15 384.36 229.76" stroke-dasharray="7 11" transform="rotate(80.38461538461539, 400, 400)" opacity="0.74"></path><path d="M401.39 246.47Q422.92 255.96 444.26 267.51 464.78 280.91 483.88 295.81 501.05 311.72 515.9 328.07 528.2 344.23 537.91 359.57 522.53 375.95 503.16 392.32 485.3 408.7 474.05 425.08 472.6 441.46 481.37 457.84 497.86 474.21 517.38 490.59 504.83 486.36 486.06 479.51 472.52 476.62 456.69 475.33 438.86 476.37 419.47 480.3 410.13 472.87 398.8 468.66 385.44 467.34 370.18 468.36 353.27 471.03 335.08 474.53 316.06 478.03 296.68 480.69 285.26 464.57 275.62 448.44 270.49 432.32 271.34 416.19 277.92 400.07 288.36 383.95 299.69 367.82 308.69 351.7 325.91 335.36 341.8 318.86 356.07 302.86 368.51 287.92 379.09 274.54 387.9 263.06 398.29 250.08 401.39 246.47" stroke-dasharray="13 5" transform="rotate(84.61538461538461, 400, 400)" opacity="0.78"></path><path d="M417.89 263.17Q434.91 271.25 450.92 280.92 465.61 292.05 478.74 304.46 490.15 317.86 499.75 331.9 507.58 346.21 513.77 360.37 498.72 374.17 482.47 387.98 468.43 401.79 459.57 415.59 457.74 429.4 463.32 443.2 471.1 460.81 452.95 458.45 441.43 459.97 428.31 463.6 416.55 457.03 403.29 452.8 388.71 450.72 373.04 450.49 356.57 451.73 339.61 453.98 322.51 456.74 305.56 459.49 295.69 445.94 288.19 432.39 284.65 418.83 285.81 405.28 291.43 391.73 300.32 378.17 310.61 364.62 320.14 351.06 336.22 336.65 351.59 322.61 366.01 309.31 379.23 297.1 391.08 286.24 401.47 276.92 414.14 266.2 417.89 263.17" stroke-dasharray="3 0" transform="rotate(88.84615384615385, 400, 400)" opacity="0.82"></path><path d="M427.8 279.88Q439.23 286.55 449.58 294.38 458.79 303.31 466.83 313.23 473.7 324 479.48 335.45 484.26 347.35 488.21 359.49 475.11 370.77 462.36 382.05 451.84 393.33 445.09 404.61 443.1 415.89 446.17 427.17 442.85 442.98 426.7 446.89 413.79 441.27 400.15 437.23 385.98 434.7 371.46 433.53 356.8 433.53 342.2 434.46 327.85 436.08 313.91 438.1 306.28 427.04 301.03 415.98 298.93 404.92 300.29 393.86 304.92 382.8 312.12 371.73 320.85 360.67 329.82 349.61 344 337.8 357.96 326.58 371.53 316.13 384.52 306.62 396.76 298.18 408.13 290.9 423.15 282.34 427.8 279.88" stroke-dasharray="12 7" transform="rotate(93.07692307692308, 400, 400)" opacity="0.85"></path><path d="M427.44 296.57Q439.34 308.3 449.23 322.24 453.13 330.39 456.53 339.11 459.54 348.29 462.25 357.84 452.12 366.68 442.91 375.51 435.51 384.35 430.61 393.19 428.68 402.03 429.89 410.87 424.6 425.91 415.25 430.2 403.31 425.58 391.27 421.96 379.22 419.3 367.29 417.54 355.56 416.61 344.13 416.4 325.23 412.92 314.24 400.36 313.34 391.68 314.77 383.01 318.4 374.34 323.87 365.67 330.68 357 338.18 348.33 349.8 339.48 361.5 331.19 373.16 323.54 384.69 316.6 395.98 310.42 406.93 305.01 422.44 298.49 427.44 296.57" stroke-dasharray="17 2" transform="rotate(97.3076923076923, 400, 400)" opacity="0.89"></path><path d="M416.96 313.27Q423.05 321.57 428.19 331.64 432.69 343.34 436.94 356.44 424.19 369.43 416.13 382.42 413.86 401.43 407.86 407.73 402.96 409.65 398.16 413.49 380.17 406.95 362.99 402.55 346.86 400.11 331.97 399.36 327.92 386.58 329.25 373.8 335.68 361.02 345.86 348.23 363.27 336.85 381.16 327.17 399.18 319.3 416.96 313.27 416.96 313.27 416.96 313.27" stroke-dasharray="10 3" transform="rotate(101.53846153846155, 400, 400)" opacity="0.93"></path><path d="M400.22 329.98Q406.61 341.95 413.15 356.3 406.24 364.81 401.65 373.32 391.73 390.14 381.74 396.79 371.14 392.2 361.16 388.54 347 380.64 343.73 367.07 347.67 358.66 353.63 350.25 364.7 343.92 376.21 338.43 394.15 331.88 400.22 329.98" stroke-dasharray="8 5" transform="rotate(105.76923076923077, 400, 400)" opacity="0.96"></path></g></svg>