<svg width="119" height="19" viewBox="0 0 119 19" fill="none" xmlns="http://www.w3.org/2000/svg">
<g clip-path="url(#clip0_14_28695)">
<path d="M10.2587 7.92556C9.47371 6.67135 7.95791 5.92415 6.27973 5.92415C2.3549 5.92415 0 8.80617 0 12.4621C0 16.118 2.13835 19 6.19852 19C7.74138 19 9.47371 18.2528 10.2587 16.9986V18.6798H13.182V0H10.2587V7.92556ZM6.63161 16.4115C4.33084 16.4115 2.95039 14.7303 2.95039 12.4621C2.95039 10.1938 4.33084 8.51263 6.63161 8.51263C9.14891 8.51263 10.3669 10.3273 10.3669 12.4621C10.3669 14.5969 9.14891 16.4115 6.63161 16.4115Z" fill="#FAFAFA"/>
<path d="M21.1343 18.9999C22.6772 18.9999 24.4094 18.2527 25.1946 16.9985V18.6797H28.1177V6.2443H25.1946V7.92548C24.4094 6.67126 22.8937 5.92407 21.2155 5.92407C17.2907 5.92407 14.9358 8.80609 14.9358 12.462C14.9358 16.1179 17.0741 18.9999 21.1343 18.9999ZM21.5674 16.4114C19.2666 16.4114 17.8862 14.7303 17.8862 12.462C17.8862 10.1937 19.2666 8.51255 21.5674 8.51255C24.0848 8.51255 25.3029 10.3272 25.3029 12.462C25.3029 14.5968 24.0848 16.4114 21.5674 16.4114Z" fill="#FAFAFA"/>
<path d="M37.9922 5.92415C36.2057 5.92415 34.5274 6.72471 33.7424 7.92556V0H30.8191V18.6798H33.7424V16.9986C34.5274 18.1994 36.1244 19 37.8027 19C41.4567 19 44.0012 16.3048 44.0012 12.4621C44.0012 8.53933 41.5922 5.92415 37.9922 5.92415ZM37.3696 16.4115C35.15 16.4115 33.6342 14.8104 33.6342 12.4621C33.6342 10.1138 35.15 8.51263 37.3696 8.51263C39.5349 8.51263 41.0507 10.1404 41.0507 12.4621C41.0507 14.7837 39.5349 16.4115 37.3696 16.4115Z" fill="#FAFAFA"/>
<path d="M52.9282 5.92415C51.1418 5.92415 49.4634 6.72471 48.6785 7.92556V0H45.7551V18.6798H48.6785V16.9986C49.4634 18.1994 51.0604 19 52.7388 19C56.3928 19 58.9372 16.3048 58.9372 12.4621C58.9372 8.53933 56.5282 5.92415 52.9282 5.92415ZM52.3056 16.4115C50.086 16.4115 48.5702 14.8104 48.5702 12.4621C48.5702 10.1138 50.086 8.51263 52.3056 8.51263C54.4709 8.51263 55.9867 10.1404 55.9867 12.4621C55.9867 14.7837 54.4709 16.4115 52.3056 16.4115Z" fill="#FAFAFA"/>
<path d="M63.6414 18.6798V0H60.6909V18.6798H63.6414Z" fill="#FAFAFA"/>
<path d="M77.7712 11.8216C77.7712 8.32577 75.3353 5.92407 71.7353 5.92407C67.8916 5.92407 65.4014 8.48588 65.4014 12.462C65.4014 16.4915 67.8644 18.9999 71.8436 18.9999C74.875 18.9999 77.2571 17.3721 77.636 15.0505H74.6586C74.1712 16.0111 73.3051 16.4648 71.8436 16.4648C69.7051 16.4648 68.4059 15.3974 68.3247 13.4227H77.69C77.7443 12.7288 77.7712 12.3286 77.7712 11.8216ZM68.3247 11.2078C68.3516 9.44655 69.5968 8.21901 71.681 8.21901C73.7111 8.21901 74.8481 9.28644 74.875 11.2078H68.3247Z" fill="#FAFAFA"/>
<path d="M88.1746 18.6798V0H85.2241V18.6798H88.1746Z" fill="#FAFAFA"/>
<path d="M96.1333 18.9999C97.6762 18.9999 99.4086 18.2527 100.194 16.9985V18.6797H103.117V6.2443H100.194V7.92548C99.4086 6.67126 97.8928 5.92407 96.2144 5.92407C92.2898 5.92407 89.9348 8.80609 89.9348 12.462C89.9348 16.1179 92.0732 18.9999 96.1333 18.9999ZM96.5664 16.4114C94.2657 16.4114 92.8853 14.7303 92.8853 12.462C92.8853 10.1937 94.2657 8.51255 96.5664 8.51255C99.0838 8.51255 100.302 10.3272 100.302 12.462C100.302 14.5968 99.0838 16.4114 96.5664 16.4114Z" fill="#FAFAFA"/>
<path d="M112.991 5.92415C111.205 5.92415 109.526 6.72471 108.741 7.92556V0H105.818V18.6798H108.741V16.9986C109.526 18.1994 111.123 19 112.802 19C116.456 19 119 16.3048 119 12.4621C119 8.53933 116.591 5.92415 112.991 5.92415ZM112.368 16.4115C110.149 16.4115 108.633 14.8104 108.633 12.4621C108.633 10.1138 110.149 8.51263 112.368 8.51263C114.534 8.51263 116.049 10.1404 116.049 12.4621C116.049 14.7837 114.534 16.4115 112.368 16.4115Z" fill="#FAFAFA"/>
</g>
<defs>
<clipPath id="clip0_14_28695">
<rect width="119" height="19" fill="white"/>
</clipPath>
</defs>
</svg>
