<svg width="70" height="56" viewBox="0 0 70 56" fill="none" xmlns="http://www.w3.org/2000/svg">
<path d="M6.51725 39.4935L18.2242 32.1572M6.51725 39.4935L1.20691 26.0437M6.51725 39.4935L18.2242 40.8384M18.2242 32.1572L20.1552 19.6856M18.2242 32.1572L1.20691 26.0437M20.1552 19.6856L21.2414 1.22272M20.1552 19.6856L8.3276 11.3712M20.1552 19.6856L1.20691 26.0437M20.1552 19.6856L31.6207 24.0873M20.1552 19.6856L43.4483 1.22272M21.2414 1.22272L8.3276 11.3712M21.2414 1.22272H43.4483M8.3276 11.3712L1.20691 26.0437M31.6207 24.0873L43.4483 1.22272M31.6207 24.0873L40.5517 35.3363M31.6207 24.0873L38.6207 44.3843M31.6207 24.0873L28.7242 39.4935M31.6207 24.0873L18.2242 40.8384M43.4483 1.22272L61.431 12.4716M43.4483 1.22272L45.2586 12.4716M61.431 12.4716H45.2586M61.431 12.4716L57.931 19.6856M61.431 12.4716L68.7931 29.8341M45.2586 12.4716L57.931 19.6856M45.2586 12.4716L46.3448 26.0437M57.931 19.6856L68.7931 29.8341M57.931 19.6856L54.3104 29.8341M57.931 19.6856L46.3448 26.0437M68.7931 29.8341L64.4483 40.8384M68.7931 29.8341L59.3793 35.3363M64.4483 40.8384L59.3793 35.3363M64.4483 40.8384L48.7586 42.917M54.3104 29.8341L59.3793 35.3363M54.3104 29.8341L48.7586 42.917M48.7586 42.917L40.5517 35.3363M48.7586 42.917L49.8448 54.655L38.6207 44.3843M40.5517 35.3363L46.3448 26.0437M40.5517 35.3363L38.6207 44.3843M38.6207 44.3843L28.7242 39.4935M28.7242 39.4935L18.2242 40.8384" stroke="#FAFAFA" stroke-width="0.724138"/>
<ellipse cx="18.8276" cy="40.5939" rx="1.2069" ry="1.22271" fill="#FAFAFA"/>
<ellipse cx="28.4828" cy="39.3711" rx="1.2069" ry="1.22271" fill="#FAFAFA"/>
<ellipse cx="6.5172" cy="39.3711" rx="1.2069" ry="1.22271" fill="#FAFAFA"/>
<ellipse cx="17.6207" cy="32.035" rx="1.2069" ry="1.22271" fill="#FAFAFA"/>
<ellipse cx="1.2069" cy="25.9215" rx="1.2069" ry="1.22271" fill="#FAFAFA"/>
<ellipse cx="20.0345" cy="19.8079" rx="1.2069" ry="1.22271" fill="#FAFAFA"/>
<ellipse cx="7.72411" cy="11.4935" rx="1.2069" ry="1.22271" fill="#FAFAFA"/>
<ellipse cx="21.2414" cy="1.22274" rx="1.2069" ry="1.22271" fill="#FAFAFA"/>
<ellipse cx="43.4482" cy="1.22274" rx="1.2069" ry="1.22271" fill="#FAFAFA"/>
<ellipse cx="45.862" cy="12.7162" rx="1.2069" ry="1.22271" fill="#FAFAFA"/>
<ellipse cx="61.3104" cy="12.7162" rx="1.2069" ry="1.22271" fill="#FAFAFA"/>
<ellipse cx="57.931" cy="19.8079" rx="1.2069" ry="1.22271" fill="#FAFAFA"/>
<ellipse cx="46.5862" cy="25.4324" rx="1.2069" ry="1.22271" fill="#FAFAFA"/>
<ellipse cx="40.5517" cy="35.4585" rx="1.2069" ry="1.22271" fill="#FAFAFA"/>
<ellipse cx="38.1379" cy="43.7729" rx="1.2069" ry="1.22271" fill="#FAFAFA"/>
<ellipse cx="50.2069" cy="54.7773" rx="1.2069" ry="1.22271" fill="#FAFAFA"/>
<ellipse cx="49" cy="42.5502" rx="1.2069" ry="1.22271" fill="#FAFAFA"/>
<ellipse cx="64.6897" cy="40.5939" rx="1.2069" ry="1.22271" fill="#FAFAFA"/>
<ellipse cx="60.1034" cy="35.4585" rx="1.2069" ry="1.22271" fill="#FAFAFA"/>
<ellipse cx="54.5517" cy="30.0786" rx="1.2069" ry="1.22271" fill="#FAFAFA"/>
<ellipse cx="68.7931" cy="29.5895" rx="1.2069" ry="1.22271" fill="#FAFAFA"/>
<ellipse cx="31.6207" cy="24.2096" rx="1.2069" ry="1.22271" fill="#FAFAFA"/>
<path d="M45.7414 12.7162L19.9138 19.5634L46.8276 25.3101L49 42.3057L28.4828 39.1267L8.20691 11.3712L18.5862 40.7162L1.20691 26.0437L60.1035 35.214L58.0517 19.5634L64.6897 40.7162L61.5517 12.7162L21.4828 1.34503L31.5 24.5765L54.7931 30.2009L40.6724 35.214L17.7414 32.035L43.4483 1.34503L45.7414 12.7162Z" stroke="#FAFAFA" stroke-width="0.241379" stroke-dasharray="0.48 0.48"/>
</svg>
