<svg width="120" height="28" viewBox="0 0 120 28" fill="none" xmlns="http://www.w3.org/2000/svg">
<path fill-rule="evenodd" clip-rule="evenodd" d="M30.2557 5.05038C30.2557 3.01338 28.6044 1.36206 26.5674 1.36206H12.3328C10.2958 1.36206 8.64449 3.01338 8.64449 5.05038V6.31824C8.64449 8.35524 6.99318 10.0066 4.95618 10.0066H3.68832C1.65132 10.0066 0 11.6579 0 13.6949V14.9627C0 16.9997 1.65132 18.651 3.68832 18.651H4.95618C6.99318 18.651 8.64449 20.3024 8.64449 22.3394V23.6072C8.64449 25.6442 10.2958 27.2955 12.3328 27.2955H26.5674C28.6044 27.2955 30.2557 25.6442 30.2557 23.6072V22.3394C30.2557 20.3024 31.907 18.651 33.944 18.651H35.2119C37.2489 18.651 38.9002 16.9997 38.9002 14.9627V13.6949C38.9002 11.6579 37.2489 10.0066 35.2119 10.0066H33.944C31.907 10.0066 30.2557 8.35524 30.2557 6.31824V5.05038ZM8.64449 14.9051C8.64449 16.9421 10.2958 18.5934 12.3328 18.5934H26.5674C28.6044 18.5934 30.2557 16.9421 30.2557 14.9051V13.7525C30.2557 11.7155 28.6044 10.0642 26.5674 10.0642H12.3328C10.2958 10.0642 8.64449 11.7155 8.64449 13.7525V14.9051Z" fill="#FAFAFA"/>
<path d="M57.4758 22.6667C55.2092 22.6667 53.4647 22.1889 52.2425 21.2333C51.0203 20.2556 50.4092 18.8 50.4092 16.8667V16.8H53.0092V17.2333C53.0092 17.9444 53.1314 18.5444 53.3758 19.0333C53.6203 19.5222 54.0647 19.8889 54.7092 20.1333C55.3758 20.3556 56.3203 20.4667 57.5425 20.4667C58.5425 20.4667 59.3092 20.3778 59.8425 20.2C60.3758 20 60.7425 19.7222 60.9425 19.3667C61.1425 19.0111 61.2425 18.5778 61.2425 18.0667C61.2425 17.2444 60.9758 16.6667 60.4425 16.3333C59.9314 15.9778 59.0536 15.6889 57.8092 15.4667L55.0758 14.9667C54.1647 14.7889 53.3647 14.5333 52.6758 14.2C51.987 13.8444 51.4425 13.3556 51.0425 12.7333C50.6425 12.0889 50.4425 11.2778 50.4425 10.3C50.4425 8.85555 51.0092 7.7 52.1425 6.83333C53.2758 5.96667 54.8314 5.53333 56.8092 5.53333C58.1203 5.53333 59.2647 5.74444 60.2425 6.16667C61.2203 6.58889 61.9981 7.22222 62.5758 8.06666C63.1536 8.88889 63.4425 9.92222 63.4425 11.1667V11.3667H60.9092V11.0667C60.9092 10.4222 60.7981 9.85555 60.5758 9.36666C60.3758 8.87778 59.9758 8.48889 59.3758 8.2C58.7981 7.91111 57.9314 7.76667 56.7758 7.76667C55.2647 7.76667 54.2536 7.97778 53.7425 8.4C53.2314 8.82222 52.9758 9.44444 52.9758 10.2667C52.9758 11.0667 53.2092 11.6333 53.6758 11.9667C54.1425 12.2778 54.9758 12.5667 56.1758 12.8333L58.9758 13.3333C59.9758 13.5111 60.8203 13.7889 61.5092 14.1667C62.2203 14.5444 62.7647 15.0444 63.1425 15.6667C63.5425 16.2667 63.7425 17.0222 63.7425 17.9333C63.7425 19.4444 63.1758 20.6111 62.0425 21.4333C60.9314 22.2556 59.4092 22.6667 57.4758 22.6667Z" fill="#FAFAFA"/>
<path d="M73.0868 22.6667C71.3757 22.6667 69.9423 22.3 68.7868 21.5667C67.6312 20.8111 66.7646 19.7889 66.1868 18.5C65.609 17.2111 65.3201 15.7333 65.3201 14.0667C65.3201 12.4 65.6312 10.9222 66.2534 9.63333C66.8979 8.34444 67.7979 7.34444 68.9534 6.63333C70.109 5.9 71.4757 5.53333 73.0534 5.53333C74.409 5.53333 75.6423 5.8 76.7534 6.33333C77.8646 6.86667 78.7423 7.66667 79.3868 8.73333C80.0312 9.77778 80.3534 11.1 80.3534 12.7C80.3534 13.1222 80.3312 13.5222 80.2868 13.9C80.2646 14.2556 80.2312 14.5556 80.1868 14.8H66.6534V12.8667H78.2201L77.7868 13.2667C77.9201 11.9333 77.7979 10.8778 77.4201 10.1C77.0646 9.3 76.509 8.71111 75.7534 8.33333C75.0201 7.95556 74.0979 7.76667 72.9868 7.76667C71.0534 7.76667 69.6979 8.28889 68.9201 9.33333C68.1646 10.3778 67.7868 11.8 67.7868 13.6V14.3333C67.7868 15.5778 67.9534 16.6556 68.2868 17.5667C68.6201 18.4556 69.1646 19.1333 69.9201 19.6C70.6979 20.0667 71.7646 20.3 73.1201 20.3C74.7423 20.3 75.8979 19.9889 76.5868 19.3667C77.2757 18.7444 77.6201 17.9667 77.6201 17.0333V16.8H80.2201V17.0667C80.2201 18.1333 79.9201 19.0889 79.3201 19.9333C78.7201 20.7778 77.8868 21.4444 76.8201 21.9333C75.7534 22.4222 74.509 22.6667 73.0868 22.6667Z" fill="#FAFAFA"/>
<path d="M89.6649 22.6667C87.9538 22.6667 86.5205 22.3 85.3649 21.5667C84.2094 20.8111 83.3427 19.7889 82.7649 18.5C82.1871 17.2111 81.8982 15.7333 81.8982 14.0667C81.8982 12.4 82.2093 10.9222 82.8316 9.63333C83.476 8.34444 84.376 7.34444 85.5316 6.63333C86.6871 5.9 88.0538 5.53333 89.6316 5.53333C90.9871 5.53333 92.2205 5.8 93.3316 6.33333C94.4427 6.86667 95.3205 7.66667 95.9649 8.73333C96.6094 9.77778 96.9316 11.1 96.9316 12.7C96.9316 13.1222 96.9093 13.5222 96.8649 13.9C96.8427 14.2556 96.8093 14.5556 96.7649 14.8H83.2316V12.8667H94.7982L94.3649 13.2667C94.4982 11.9333 94.376 10.8778 93.9982 10.1C93.6427 9.3 93.0871 8.71111 92.3316 8.33333C91.5982 7.95556 90.676 7.76667 89.5649 7.76667C87.6316 7.76667 86.276 8.28889 85.4982 9.33333C84.7427 10.3778 84.3649 11.8 84.3649 13.6V14.3333C84.3649 15.5778 84.5316 16.6556 84.8649 17.5667C85.1982 18.4556 85.7427 19.1333 86.4982 19.6C87.276 20.0667 88.3427 20.3 89.6982 20.3C91.3205 20.3 92.476 19.9889 93.1649 19.3667C93.8538 18.7444 94.1982 17.9667 94.1982 17.0333V16.8H96.7982V17.0667C96.7982 18.1333 96.4982 19.0889 95.8982 19.9333C95.2982 20.7778 94.4649 21.4444 93.3982 21.9333C92.3316 22.4222 91.0871 22.6667 89.6649 22.6667Z" fill="#FAFAFA"/>
<path d="M105.71 22.6667C103.376 22.6667 101.587 21.8889 100.343 20.3333C99.0986 18.7778 98.4764 16.6889 98.4764 14.0667C98.4764 11.4889 99.0652 9.42222 100.243 7.86667C101.421 6.31111 103.143 5.53333 105.41 5.53333C106.987 5.53333 108.265 5.86667 109.243 6.53333C110.243 7.2 110.921 7.96667 111.276 8.83333H112.043L111.91 12.6667H111.276C111.276 11.5556 111.076 10.6444 110.676 9.93333C110.276 9.22222 109.699 8.68889 108.943 8.33333C108.187 7.97778 107.276 7.8 106.21 7.8C105.387 7.8 104.654 7.9 104.01 8.1C103.365 8.3 102.821 8.64444 102.376 9.13333C101.954 9.6 101.632 10.2444 101.41 11.0667C101.21 11.8667 101.11 12.8667 101.11 14.0667C101.11 15.2667 101.21 16.2778 101.41 17.1C101.632 17.9222 101.965 18.5778 102.41 19.0667C102.854 19.5333 103.387 19.8667 104.01 20.0667C104.654 20.2667 105.376 20.3667 106.176 20.3667C107.265 20.3667 108.187 20.1889 108.943 19.8333C109.699 19.4778 110.276 18.9444 110.676 18.2333C111.076 17.5 111.276 16.5889 111.276 15.5H111.91L112.043 19.2667H111.41C111.054 20.2889 110.399 21.1111 109.443 21.7333C108.51 22.3556 107.265 22.6667 105.71 22.6667ZM113.943 22.3333H111.543V18.1333L111.276 17.7V0H113.943V22.3333Z" fill="#FAFAFA"/>
<path d="M119.463 3.66667H116.829V0H119.463V3.66667ZM113.563 28V25.5667H114.796C115.596 25.5667 116.129 25.4556 116.396 25.2333C116.685 25.0111 116.829 24.5444 116.829 23.8333V5.86667H119.463V23.2333C119.463 24.4778 119.252 25.4444 118.829 26.1333C118.429 26.8222 117.863 27.3 117.129 27.5667C116.418 27.8556 115.552 28 114.529 28C114.374 28 114.218 28 114.063 28C113.907 28 113.741 28 113.563 28Z" fill="#FAFAFA"/>
</svg>
